HIERARCHY
ROOT Hips
{
  OFFSET 48.9666 100.591 19.7655
  CHANNELS 6 Xposition Yposition Zposition Zrotation Xrotation Yrotation
  JOINT spine
  {
    OFFSET 0 8.81704 0.507024
    CHANNELS 3 Zrotation Xrotation Yrotation
    JOINT spine1
    {
      OFFSET 0 10.7766 0
      CHANNELS 3 Zrotation Xrotation Yrotation
      JOINT spine2
      {
        OFFSET 0 10.3259 0
        CHANNELS 3 Zrotation Xrotation Yrotation
        JOINT Neck
        {
          OFFSET 0 26.511 1.26395
          CHANNELS 3 Zrotation Xrotation Yrotation
          JOINT Head
          {
            OFFSET 0 8.00966 0
            CHANNELS 3 Zrotation Xrotation Yrotation
            End Site
            {
              OFFSET 0 19.3879 -6.39386
            }
          }
        }
        JOINT RightShoulder
        {
          OFFSET -4.34795 11.1512 -0.605422
          CHANNELS 3 Zrotation Xrotation Yrotation
          JOINT RightArm
          {
            OFFSET 0 14.6258 0
            CHANNELS 3 Zrotation Xrotation Yrotation
            JOINT RightArmRoll
            {
              OFFSET 0 7.3834 0
              CHANNELS 3 Zrotation Xrotation Yrotation
              JOINT RightForeArm
              {
                OFFSET 0 21.5052 0
                CHANNELS 3 Zrotation Xrotation Yrotation
                JOINT RightForeArmRoll
                {
                  OFFSET 0 8.28532 0
                  CHANNELS 3 Zrotation Xrotation Yrotation
                  JOINT RightHand
                  {
                    OFFSET 0 16.6268 0
                    CHANNELS 3 Zrotation Xrotation Yrotation
                    End Site
                    {
                      OFFSET 0 0 0
                    }
                  }
                }
              }
            }
          }
        }
        JOINT LeftShoulder
        {
          OFFSET 4.34795 11.1512 -0.605422
          CHANNELS 3 Zrotation Xrotation Yrotation
          JOINT LeftArm
          {
            OFFSET 0 14.6258 0
            CHANNELS 3 Zrotation Xrotation Yrotation
            JOINT LeftArmRoll
            {
              OFFSET 0 7.3834 0
              CHANNELS 3 Zrotation Xrotation Yrotation
              JOINT LeftForeArm
              {
                OFFSET 0 21.5052 0
                CHANNELS 3 Zrotation Xrotation Yrotation
                JOINT LeftForeArmRoll
                {
                  OFFSET 0 8.28532 0
                  CHANNELS 3 Zrotation Xrotation Yrotation
                  JOINT LeftHand
                  {
                    OFFSET 0 16.6268 0
                    CHANNELS 3 Zrotation Xrotation Yrotation
                    End Site
                    {
                      OFFSET 0 0 0
                    }
                  }
                }
              }
            }
          }
        }
      }
    }
  }
  JOINT RightUpLeg
  {
    OFFSET -7.8151 -1.43309 -1.20217
    CHANNELS 3 Zrotation Xrotation Yrotation
    JOINT RightUpLegRoll
    {
      OFFSET 0 19.4959 0
      CHANNELS 3 Zrotation Xrotation Yrotation
      JOINT RightLeg
      {
        OFFSET 0 -24.1427 0
        CHANNELS 3 Zrotation Xrotation Yrotation
        JOINT RightLegRoll
        {
          OFFSET 0 24.2217 0
          CHANNELS 3 Zrotation Xrotation Yrotation
          JOINT RightFoot
          {
            OFFSET 0 20.1605 0
            CHANNELS 3 Zrotation Xrotation Yrotation
            JOINT RightToeBase
            {
              OFFSET 0 16.8532 0
              CHANNELS 3 Zrotation Xrotation Yrotation
              End Site
              {
                OFFSET 0.00714343 8.16187 -0.940781
              }
            }
          }
        }
      }
    }
  }
  JOINT LeftUpLeg
  {
    OFFSET 7.8151 -1.43309 -1.20217
    CHANNELS 3 Zrotation Xrotation Yrotation
    JOINT LeftUpLegRoll
    {
      OFFSET 0 19.496 0
      CHANNELS 3 Zrotation Xrotation Yrotation
      JOINT LeftLeg
      {
        OFFSET 0 24.1426 0
        CHANNELS 3 Zrotation Xrotation Yrotation
        JOINT LeftLegRoll
        {
          OFFSET 0 24.4456 0
          CHANNELS 3 Zrotation Xrotation Yrotation
          JOINT LeftFoot
          {
            OFFSET 0 19.9366 0
            CHANNELS 3 Zrotation Xrotation Yrotation
            JOINT LeftToeBase
            {
              OFFSET 0 16.8532 0
              CHANNELS 3 Zrotation Xrotation Yrotation
              End Site
              {
                OFFSET -0.0320138 8.16187 -0.94078
              }
            }
          }
        }
      }
    }
  }
}
MOTION
Frames: 5
Frame Time: 0.00208333
49.094 100.785 19.5829 0.188937 -4.11034 2.07462 0.0597584 -1.78468 -0.0209216 0.118785 0.42863 -0.0652982 0.119607 2.07369 -0.067562 -1.86529 25.8617 3.31452 -2.66725 -7.64398 2.17463 67.0477 -0.768861 -1.43366 106.411 17.608 10.8224 -6.75868e-015 -3.18055e-015 -1.59028e-015 15.502 0.111622 -0.450774 1.83492e-005 -5.15292e-007 -3.03568 8.02898 -4.95143 0.697676 -62.0895 -3.9101 2.69693 -108.869 13.5052 -4.61766 -3.56704e-005 2.4648e-007 -1.58255e-006 -12.7032 2.30539 0.598161 3.52308e-006 -8.27879e-007 3 -8.02885 -4.95146 -0.697677 177.347 -3.67006 -0.10169 180 7.01523e-015 178.825 179.504 6.44495 179.625 -5.31032e-007 -5.43449e-006 0.108153 -19.2424 68.6577 20.0986 8.15229 25.4944 -3.12275 -176.252 -2.71012 1.64025 4.54188e-006 -4.6773e-006 -1.16127 -2.20793 -6.33765 0.156181 -2.10086e-006 -8.76278e-006 -0.0914883 19.0033 68.3268 -19.7958 -8.13649 25.2327 3.48774 
49.0945 100.786 19.5895 0.189598 -4.10077 2.07229 0.0592235 -1.78689 -0.02005 0.11775 0.424546 -0.0622338 0.118537 2.06961 -0.064461 -1.84796 25.8603 3.31066 -2.68944 -7.63147 2.17335 67.0733 -0.772741 -1.43833 106.353 17.564 10.8285 3.57812e-015 3.18055e-015 -0 15.5128 0.0887841 -0.420603 1.83492e-005 -5.15292e-007 -3.03338 8.02898 -4.95143 0.697676 -62.0888 -3.91159 2.69769 -108.845 13.4803 -4.64775 -3.56704e-005 2.4648e-007 -1.58255e-006 -12.6885 2.35067 0.605502 3.52308e-006 -8.27879e-007 3 -8.02885 -4.95146 -0.697677 177.346 -3.65339 -0.102254 180 7.01523e-015 178.825 179.504 6.45638 179.625 -5.31032e-007 -5.43449e-006 0.108149 -19.2468 68.6626 20.1032 8.15227 25.4941 -3.12398 -176.254 -2.69906 1.64263 4.54188e-006 -4.6773e-006 -1.16128 -2.20693 -6.33974 0.156177 -2.10086e-006 -8.76278e-006 -0.0914737 19.0041 68.3277 -19.7967 -8.13649 25.2327 3.48774 
49.0906 100.786 19.5731 0.190335 -4.09112 2.06983 0.0586572 -1.78913 -0.0191555 0.116657 0.420428 -0.0590747 0.117406 2.06549 -0.0612636 -1.83161 25.8578 3.30722 -2.71009 -7.61744 2.17247 67.0988 -0.776703 -1.44302 106.296 17.5213 10.8365 0 3.18055e-015 -0 15.5225 0.054809 -0.387744 1.83492e-005 -5.15292e-007 -3.03101 8.02898 -4.95143 0.697676 -62.088 -3.91321 2.69852 -108.821 13.4564 -4.67784 -3.56704e-005 2.4648e-007 -1.58255e-006 -12.6736 2.39397 0.612636 3.52308e-006 -8.27879e-007 3 -8.02885 -4.95146 -0.697677 177.346 -3.63652 -0.10287 180 7.01523e-015 178.825 179.503 6.46797 179.625 -5.31032e-007 -5.43449e-006 0.108137 -19.2512 68.6675 20.108 8.15225 25.4939 -3.12526 -176.256 -2.68813 1.64512 4.54188e-006 -4.6773e-006 -1.16129 -2.20586 -6.34148 0.156177 -2.10086e-006 -8.76278e-006 -0.091452 19.0048 68.3285 -19.7974 -8.13649 25.2327 3.48774 
49.0849 100.786 19.5765 0.191126 -4.08141 2.06729 0.0580691 -1.79139 -0.0182449 0.115522 0.416286 -0.0558493 0.116233 2.06135 -0.0579988 -1.81595 25.8547 3.30407 -2.72968 -7.60233 2.17187 67.1242 -0.780724 -1.44773 106.239 17.4796 10.8458 7.15625e-015 0 -1.59028e-015 15.5315 0.0130378 -0.353002 1.83492e-005 -5.15292e-007 -3.02857 8.02898 -4.95143 0.697676 -62.0872 -3.91492 2.69939 -108.797 13.4332 -4.70794 -3.56704e-005 2.4648e-007 -1.58255e-006 -12.6585 2.43588 0.619625 3.52308e-006 -8.27879e-007 3 -8.02885 -4.95146 -0.697677 177.345 -3.61953 -0.103522 180 7.01523e-015 178.825 179.503 6.47966 179.625 -5.31032e-007 -5.43449e-006 0.10812 -19.2557 68.6726 20.1128 8.15223 25.4936 -3.12657 -176.258 -2.67729 1.6477 4.54188e-006 -4.6773e-006 -1.1613 -2.20475 -6.34297 0.15618 -2.10086e-006 -8.76278e-006 -0.0914253 19.0055 68.3293 -19.7982 -8.13649 25.2327 3.48774 
49.0785 100.787 19.5899 0.191949 -4.07167 2.06469 0.0574684 -1.79365 -0.0173251 0.114364 0.412132 -0.052586 0.115036 2.0572 -0.0546954 -1.80069 25.8511 3.30109 -2.74865 -7.58661 2.17143 67.1496 -0.784777 -1.45246 106.183 17.4384 10.8559 -1.98785e-015 0 -4.77083e-015 15.54 -0.0331884 -0.317185 1.83492e-005 -5.15292e-007 -3.02611 8.02898 -4.95143 0.697676 -62.0863 -3.91668 2.70029 -108.774 13.4105 -4.73804 -3.56704e-005 2.4648e-007 -1.58255e-006 -12.6433 2.47701 0.626531 3.52308e-006 -8.27879e-007 3 -8.02885 -4.95146 -0.697677 177.345 -3.60246 -0.104196 180 7.01523e-015 178.825 179.502 6.49144 179.626 -5.31032e-007 -5.43449e-006 0.108099 -19.2602 68.6776 20.1176 8.15222 25.4934 -3.1279 -176.26 -2.6665 1.65032 4.54188e-006 -4.6773e-006 -1.16132 -2.20361 -6.34432 0.156184 -2.10086e-006 -8.76278e-006 -0.0913958 19.0061 68.33 -19.7988 -8.13649 25.2327 3.48774 
